<svg width="144" height="144" viewBox="0 0 144 144" fill="none" xmlns="http://www.w3.org/2000/svg">
<!--<rect width="144" height="144" fill="#8C8C8C"/>-->
<g id="BBO - screen 1">
<!--<rect width="390" height="844" transform="translate(-123 -413)" fill="rgb(0,0,0,0)"/>-->
<g id=" ">
<g id="Frame 1">
<circle id="Ellipse 1" cx="71.9953" cy="71.715" r="71.715" fill="green"/>
<g id="Group">
<path id="Vector" d="M71.9952 83.1884C75.0384 83.1884 77.9569 81.9796 80.1086 79.8277C82.2604 77.6758 83.4693 74.7574 83.4693 71.7143V56.4155C83.4693 52.3163 81.2825 48.5283 77.7323 46.4784C74.1821 44.4291 69.8084 44.4291 66.2582 46.4784C62.708 48.5283 60.5211 52.3163 60.5211 56.4155V71.7143C60.5211 74.7574 61.7299 77.6759 63.8818 79.8277C66.0337 81.9795 68.9521 83.1884 71.9952 83.1884Z" fill="white"/>
<path id="Vector_2" d="M87.294 71.7144C87.294 77.18 84.3781 82.2305 79.6446 84.9631C74.9112 87.6964 69.0793 87.6964 64.3458 84.9631C59.6124 82.2303 56.6964 77.1796 56.6964 71.7144H52.8717C52.8478 76.4717 54.598 81.067 57.7807 84.6036C60.9629 88.1397 65.3494 90.3629 70.0831 90.8384V98.4878H73.9078V90.8384C78.6413 90.3629 83.0278 88.1398 86.2102 84.6036C89.3929 81.0675 91.1431 76.4723 91.1192 71.7144H87.294Z" fill="white"/>
</g>
</g>
</g>
</g>
</svg>
